<svg width="100" height="100" viewBox="0 0 100 100" class="looka-1j8o68f">
    <defs id="SvgjsDefs1778"></defs>
    <g id="SvgjsG1779" featurekey="symbolFeature-0" transform="matrix(1, 0, 0, 1, 0, 0)" fill="#ff7a8a" data-darkreader-inline-fill="" style="--darkreader-inline-fill: #830010;">
        <path xmlns="http://www.w3.org/2000/svg" d="M16.2,52.1c0.2,0.1,0.4,0.2,0.5,0.2c0.3,0,0.6-0.1,0.8-0.4c0.3-0.4,0.2-1-0.2-1.3c-0.4-0.3-1.2-1.1-1.2-2  c0-1.2,0.8-1.9,1.8-2.8c1-1,2.2-2.1,2.2-3.8c0-2-0.7-3-1.2-3.9c-0.3-0.5-0.5-0.9-0.7-1.3C18,35.7,19,34.7,19,34.7  c0.4-0.4,0.4-1,0.1-1.4c-0.4-0.4-1-0.4-1.4-0.1c-0.1,0.1-1.9,1.8-1.4,4c0.2,0.8,0.5,1.4,0.9,1.9c0.5,0.8,0.9,1.5,0.9,2.9  c0,0.9-0.7,1.6-1.6,2.4c-1.1,1-2.4,2.3-2.4,4.2C14.2,50.2,15.3,51.5,16.2,52.1z M18.2,49.5c0.1,1.4,1.1,2.3,1.9,2.7  c0.1,0.1,0.3,0.1,0.4,0.1c0.4,0,0.7-0.2,0.9-0.5c0.2-0.5,0-1.1-0.4-1.3c-0.3-0.1-0.8-0.6-0.8-1.2c-0.1-0.8,0.6-1.9,1.8-2.9  c0.4-0.3,0.5-0.9,0.1-1.4c-0.3-0.4-0.9-0.5-1.4-0.1C18.5,46.7,18.1,48.4,18.2,49.5z"></path>
        <path xmlns="http://www.w3.org/2000/svg" d="M29,54H12c-0.5,0-0.9,0.4-0.9,1v1.9c-0.8-0.3-1.6-0.3-2.4-0.1c-2.4,0.6-3.9,3.3-3.2,5.9c0.3,1.3,1.1,2.3,2.1,3  c0.8,0.5,1.6,0.8,2.5,0.8c0.4,0,0.7,0,1.1-0.1c0.3-0.1,0.6-0.2,0.8-0.3c0.9,2,2.4,3.7,4.4,4.7c0.1,0.1,0.3,0.1,0.4,0.1h7.7  c0.2,0,0.3,0,0.4-0.1c3.2-1.6,5.2-4.9,5.2-8.5V55C30.1,54.4,29.5,54,29,54z M10.6,64.4c-0.7,0.2-1.4,0-2-0.4s-1.1-1.1-1.3-1.9  c-0.4-1.6,0.4-3.2,1.8-3.6c0.7-0.2,1.4,0,2,0.4v3.3c0,0.7,0.1,1.3,0.2,1.9C11.1,64.3,10.9,64.3,10.6,64.4z"></path>
        <path xmlns="http://www.w3.org/2000/svg" d="M76.6,77.8H13.7c-2.4,0-4.6-1.2-5.9-3.1L6.6,73h77l-1.2,1.7C81.1,76.7,78.9,77.8,76.6,77.8z"></path>
        <path xmlns="http://www.w3.org/2000/svg" d="M64.1,30.1c-0.5-0.1-1-0.2-1.5-0.2c0.7-0.6,1.2-1.6,1.2-2.6c0-1.9-1.6-3.5-3.5-3.5c-1.9,0-3.5,1.6-3.5,3.5  c0,1.1,0.5,2,1.2,2.6c-0.4,0-0.9,0.1-1.2,0.2c-2.9,0.6-5.6,2-7.5,4.1h22.2C69.9,32.3,67,30.6,64.1,30.1z"></path>
        <path xmlns="http://www.w3.org/2000/svg" d="M92.3,34.1c-4.3-4.3-11.6-4-16.2,0.7c-0.5,0.5-1,1.1-1.5,1.7c-0.2-0.2-0.4-0.3-0.7-0.5H67v9h3v8h-7v-8h3v-9H47  c-1.6,1.1-2.9,2.4-4.1,3.8l-6.4-7.5c-0.2-0.2-0.4-0.3-0.7-0.3h-6.7c-0.4,0-0.7,0.2-0.9,0.6c-0.3,0.7-0.4,2.3,1.3,3.3  c0.3,0.2,0.7,0.3,1,0.4c0.7,0.2,1.4,0.4,2.2,1.4c0.6,0.7,0.6,2.8,0.7,4.8c0.1,4.1,0.2,9.7,4.8,11.6c0.5,6.8,4.3,13,10.6,16.6  c0.1,0.1,0.3,0.1,0.5,0.1h22.3c0.2,0,0.3,0,0.5-0.1c5.5-3.2,9.1-8.3,10.2-14.1c3.5-1.8,7.1-4.2,9.2-6.3  C96.3,45.6,96.6,38.3,92.3,34.1z M87.6,46.2c-0.9,0.9-2.7,2.3-5,3.8c-0.5-3.4-1.8-6.7-3.9-9.5c0.6-0.8,1.2-1.5,1.4-1.8  c2.5-2.5,6.2-2.8,8.2-0.7C90.4,40.1,90.1,43.8,87.6,46.2z"></path>
    </g>
</svg>
