<svg width="429" height="54.14204244539563" viewBox="0 0 369.7777777777778 46.6678884377821" class="looka-1j8o68f">
    <defs id="SvgjsDefs1778"></defs>
    <g id="SvgjsG1779" featurekey="symbolFeature-0" transform="matrix(0.8642200952045198,0,0,0.8642200952045198,287.3960295104397,-20.568437606519964)" fill="#ff7a8a" data-darkreader-inline-fill="" style="--darkreader-inline-fill: #830010;">
        <path xmlns="http://www.w3.org/2000/svg" d="M16.2,52.1c0.2,0.1,0.4,0.2,0.5,0.2c0.3,0,0.6-0.1,0.8-0.4c0.3-0.4,0.2-1-0.2-1.3c-0.4-0.3-1.2-1.1-1.2-2  c0-1.2,0.8-1.9,1.8-2.8c1-1,2.2-2.1,2.2-3.8c0-2-0.7-3-1.2-3.9c-0.3-0.5-0.5-0.9-0.7-1.3C18,35.7,19,34.7,19,34.7  c0.4-0.4,0.4-1,0.1-1.4c-0.4-0.4-1-0.4-1.4-0.1c-0.1,0.1-1.9,1.8-1.4,4c0.2,0.8,0.5,1.4,0.9,1.9c0.5,0.8,0.9,1.5,0.9,2.9  c0,0.9-0.7,1.6-1.6,2.4c-1.1,1-2.4,2.3-2.4,4.2C14.2,50.2,15.3,51.5,16.2,52.1z M18.2,49.5c0.1,1.4,1.1,2.3,1.9,2.7  c0.1,0.1,0.3,0.1,0.4,0.1c0.4,0,0.7-0.2,0.9-0.5c0.2-0.5,0-1.1-0.4-1.3c-0.3-0.1-0.8-0.6-0.8-1.2c-0.1-0.8,0.6-1.9,1.8-2.9  c0.4-0.3,0.5-0.9,0.1-1.4c-0.3-0.4-0.9-0.5-1.4-0.1C18.5,46.7,18.1,48.4,18.2,49.5z"></path>
        <path xmlns="http://www.w3.org/2000/svg" d="M29,54H12c-0.5,0-0.9,0.4-0.9,1v1.9c-0.8-0.3-1.6-0.3-2.4-0.1c-2.4,0.6-3.9,3.3-3.2,5.9c0.3,1.3,1.1,2.3,2.1,3  c0.8,0.5,1.6,0.8,2.5,0.8c0.4,0,0.7,0,1.1-0.1c0.3-0.1,0.6-0.2,0.8-0.3c0.9,2,2.4,3.7,4.4,4.7c0.1,0.1,0.3,0.1,0.4,0.1h7.7  c0.2,0,0.3,0,0.4-0.1c3.2-1.6,5.2-4.9,5.2-8.5V55C30.1,54.4,29.5,54,29,54z M10.6,64.4c-0.7,0.2-1.4,0-2-0.4s-1.1-1.1-1.3-1.9  c-0.4-1.6,0.4-3.2,1.8-3.6c0.7-0.2,1.4,0,2,0.4v3.3c0,0.7,0.1,1.3,0.2,1.9C11.1,64.3,10.9,64.3,10.6,64.4z"></path>
        <path xmlns="http://www.w3.org/2000/svg" d="M76.6,77.8H13.7c-2.4,0-4.6-1.2-5.9-3.1L6.6,73h77l-1.2,1.7C81.1,76.7,78.9,77.8,76.6,77.8z"></path>
        <path xmlns="http://www.w3.org/2000/svg" d="M64.1,30.1c-0.5-0.1-1-0.2-1.5-0.2c0.7-0.6,1.2-1.6,1.2-2.6c0-1.9-1.6-3.5-3.5-3.5c-1.9,0-3.5,1.6-3.5,3.5  c0,1.1,0.5,2,1.2,2.6c-0.4,0-0.9,0.1-1.2,0.2c-2.9,0.6-5.6,2-7.5,4.1h22.2C69.9,32.3,67,30.6,64.1,30.1z"></path>
        <path xmlns="http://www.w3.org/2000/svg" d="M92.3,34.1c-4.3-4.3-11.6-4-16.2,0.7c-0.5,0.5-1,1.1-1.5,1.7c-0.2-0.2-0.4-0.3-0.7-0.5H67v9h3v8h-7v-8h3v-9H47  c-1.6,1.1-2.9,2.4-4.1,3.8l-6.4-7.5c-0.2-0.2-0.4-0.3-0.7-0.3h-6.7c-0.4,0-0.7,0.2-0.9,0.6c-0.3,0.7-0.4,2.3,1.3,3.3  c0.3,0.2,0.7,0.3,1,0.4c0.7,0.2,1.4,0.4,2.2,1.4c0.6,0.7,0.6,2.8,0.7,4.8c0.1,4.1,0.2,9.7,4.8,11.6c0.5,6.8,4.3,13,10.6,16.6  c0.1,0.1,0.3,0.1,0.5,0.1h22.3c0.2,0,0.3,0,0.5-0.1c5.5-3.2,9.1-8.3,10.2-14.1c3.5-1.8,7.1-4.2,9.2-6.3  C96.3,45.6,96.6,38.3,92.3,34.1z M87.6,46.2c-0.9,0.9-2.7,2.3-5,3.8c-0.5-3.4-1.8-6.7-3.9-9.5c0.6-0.8,1.2-1.5,1.4-1.8  c2.5-2.5,6.2-2.8,8.2-0.7C90.4,40.1,90.1,43.8,87.6,46.2z"></path>
    </g>
    <g id="SvgjsG1780" featurekey="nameFeature-0" transform="matrix(0.9851419672581315,0,0,0.9851419672581315,-1.385504098306165,3.6920254647742254)" fill="#ffffff" data-darkreader-inline-fill="" style="--darkreader-inline-fill: #181a1b;"><path d="M17.344 32.6562 c-0.78125 -0.15625 -1.5105 -0.3907 -2.1876 -0.7032 c-1.4584 -0.67711 -2.7344 -1.6146 -3.8281 -2.8125 c-1.0416 -1.0938 -1.875 -2.4479 -2.5 -4.0625 c-0.57289 -1.6146 -0.85938 -3.2552 -0.85938 -4.9219 l0 -0.15625 l0 -0.23438 c0 -1.7188 0.28648 -3.3854 0.85938 -5 c0.67711 -1.6666 1.5105 -2.9948 2.5001 -3.9844 c1.0416 -1.1979 2.2916 -2.1094 3.75 -2.7344 c0.88539 -0.41664 1.6406 -0.67703 2.2656 -0.78117 l0 -5.8594 c-1.8229 0.26039 -3.4375 0.70313 -4.8438 1.3281 c-2.2916 0.98961 -4.2448 2.3177 -5.8594 3.9844 s-2.8906 3.6458 -3.8281 5.9374 s-1.4063 4.6875 -1.4063 7.1875 l0 0.15625 l0 0.23438 c0 2.5521 0.46875 4.948 1.4063 7.1876 c0.83336 2.2396 2.0834 4.1927 3.75 5.8594 c1.6666 1.7188 3.6198 3.0469 5.8594 3.9844 c1.4063 0.625 3.0469 1.0677 4.9219 1.3281 l0 -5.9375 z M38.594 20 l0.000076294 -0.23438 c0 -2.5521 -0.46875 -4.948 -1.4063 -7.1876 c-0.9375 -2.2916 -2.2135 -4.2708 -3.8281 -5.9374 c-1.5625 -1.6666 -3.4896 -2.9688 -5.7813 -3.9063 c-1.3021 -0.625 -2.8906 -1.0677 -4.7656 -1.3281 l0 5.9375 l0.9375 0.3125 c0.46875 0.15625 0.83336 0.28648 1.0938 0.39063 c1.4584 0.67711 2.7344 1.6146 3.8281 2.8125 c1.0416 1.0938 1.875 2.4479 2.5 4.0625 c0.57289 1.6146 0.85938 3.2552 0.85938 4.9219 l0 0.15625 l0 0.23438 c0 1.7188 -0.28648 3.3854 -0.85938 5 c-0.67711 1.6666 -1.5105 2.9948 -2.5001 3.9844 c-1.0416 1.1979 -2.2916 2.1094 -3.75 2.7344 c-0.67711 0.3125 -1.3802 0.54688 -2.1094 0.70313 l0 5.9375 c1.5625 -0.20836 3.125 -0.65109 4.6875 -1.3282 c2.1354 -0.88539 4.0885 -2.2135 5.8594 -3.9844 c1.7188 -1.8229 2.9948 -3.802 3.8281 -5.9374 c0.9375 -2.2916 1.4063 -4.6875 1.4063 -7.1875 l0 -0.15625 z M64.922 1.4059999999999988 c-2.8646 0 -5.5209 0.4686 -7.9688 1.4061 c-2.3959 0.9375 -4.4792 2.2396 -6.2501 3.9063 c-1.7188 1.5625 -3.0729 3.5416 -4.0625 5.9375 c-0.83336 2.0313 -1.3021 4.2448 -1.4063 6.6406 l0 2.3438 l6.875 0 l0 -2.3438 c0.10414 -1.7709 0.39063 -3.2031 0.85938 -4.2969 c0.625 -1.5104 1.4844 -2.8645 2.5781 -4.0624 c1.3021 -1.1979 2.6563 -2.0833 4.0625 -2.6562 c1.6146 -0.625 3.3855 -0.9375 5.3126 -0.9375 l9.8438 0 l0 -5.9375 l-9.8438 0 z M67.89099999999999 18.984 l0.000076294 1.4843 l0.078125 0 c-0.10414 1.6666 -0.41664 3.2031 -0.9375 4.6094 c-0.67711 1.6146 -1.5365 2.9427 -2.5781 3.9844 c-1.1459 1.1459 -2.5 2.0313 -4.0625 2.6563 c-1.6146 0.625 -3.3855 0.9375 -5.3126 0.9375 l-9.8438 0 l0 5.9375 l9.8438 0 c2.8646 0 5.5209 -0.46875 7.9688 -1.4063 c2.3959 -0.9375 4.4792 -2.2396 6.2501 -3.9063 c1.8229 -1.8229 3.177 -3.802 4.0624 -5.9374 c0.9375 -2.0834 1.4063 -4.375 1.4063 -6.875 l0 -1.4844 l-6.875 0 z M103.281 16.875 l0 -15.547 l-6.5625 0 l0 37.344 l6.5625 0 l0 -21.797 z M123.8281 38.5937 l6.4844 0 l0 -19.922 l-6.4844 -9.1406 l0 29.063 z M149.766 1.4059999999999988 l0 25.703 l-18.359 -25.703 l-7.0313 0 l26.406 37.188 l5.3906 0 l0 -37.188 l-6.4063 0 z M183.281 7.5 l11.797 0 l0 -6.0938 l-30.156 0 l0 6.0938 l18.359 0 z M176.719 13.594000000000001 l6.5625 0 l0 25 l-6.5625 0 l0 -25 z M206.0938 1.4059999999999988 l27.813 0 l0 5.9375 l-27.813 0 l0 -5.9375 z M206.0938 32.6562 l27.734 0 l0 5.9375 l-27.734 0 l0 -5.9375 z M206.0938 16.875 l25.078 0 l0 5.8594 l-25.078 0 l0 -5.8594 z M270.703 38.5937 l7.0313 0 l-13.594 -37.266 l-7.1094 0 l7.8906 22.266 z M241.9531 38.5937 l6.875 0 l8.125 -19.844 l-3.3594 -8.9063 z"></path></g>
</svg>
